PathFileType	4	(X/Y/Z)	./resultDataOpenSim/trcMotMarkerGrf/sub09/qtm-13-02.trc
DataRate	CameraRate	NumFrames	NumMarkers	Units	OrigDataRate	OrigDataStartFrame	OrigNumFrames
250.000000	250.000000	10	24	m	250.000000	458	523
Frame#	Time	L.Toe.Tip			R.Toe.Tip			L.Ankle.Lat			R.Ankle.Lat			L.Ankle.Med			R.Ankle.Med			L.Heel			R.Heel			L.Knee.Lat			R.Knee.Lat			L.Knee.Med			R.Knee.Med			L.Thigh.Upper			R.Thigh.Upper			L.ASIS			R.ASIS			V.Sacral			L.Acromium			R.Acromium			C7			L.Elbow			R.Elbow			L.Wrist.Lat			R.Wrist.Lat
		X1	Y1	Z1	X2	Y2	Z2	X3	Y3	Z3	X4	Y4	Z4	X5	Y5	Z5	X6	Y6	Z6	X7	Y7	Z7	X8	Y8	Z8	X9	Y9	Z9	X10	Y10	Z10	X11	Y11	Z11	X12	Y12	Z12	X13	Y13	Z13	X14	Y14	Z14	X15	Y15	Z15	X16	Y16	Z16	X17	Y17	Z17	X18	Y18	Z18	X19	Y19	Z19	X20	Y20	Z20	X21	Y21	Z21	X22	Y22	Z22	X23	Y23	Z23	X24	Y24	Z24

458	1.828	1.7761681	0.13576162	-0.010950941	1.0644252	0.039952571	0.03417155	1.6249186	0.098636362	-0.046024637	0.92329492	0.085837589	0.065646583	1.6466499	0.12766808	0.045951369	0.95756631	0.12724571	-0.018653577	1.5837405	0.036311157	0.01006057	0.8561762	0.087544853	0.010504695	1.469477	0.48606603	-0.097681861	1.1535415	0.48754601	0.16026041	1.4687493	0.48157075	0.029154317	1.1485311	0.48217118	0.033410672	1.2955161	0.86049587	-0.14857925	1.2109491	0.88486583	0.21487632	1.3580497	0.9531754	-0.078206317	1.3330219	0.9645038	0.16346042	1.1775138	1.0084619	0.013271628	1.3171591	1.4084828	-0.14017199	1.2898606	1.428083	0.189139	1.240642	1.4663614	0.020883344	1.1434674	1.0877119	-0.20536923	1.1522663	1.0926797	0.29926562	1.2569844	0.84882878	-0.24047734	1.3390823	0.88876108	0.32611782
459	1.832	1.7792806	0.13210974	-0.0094635439	1.0645694	0.040067777	0.034297715	1.6281445	0.096587616	-0.04549486	0.92398963	0.087358246	0.066757309	1.6494778	0.125356	0.046862907	0.95846955	0.12826353	-0.017910315	1.5857151	0.034702983	0.010550808	0.85680907	0.089476572	0.0113965	1.4760952	0.48553642	-0.097158357	1.1579278	0.48681297	0.16066292	1.4756804	0.48148908	0.029651188	1.1528144	0.48136834	0.033854131	1.3012553	0.85987002	-0.14877498	1.2162875	0.88392968	0.21468176	1.363913	0.95232719	-0.078241219	1.3386886	0.96338501	0.16347748	1.1832815	1.0074883	0.013152985	1.3225443	1.4076066	-0.14030301	1.2951773	1.4269245	0.18899943	1.2457181	1.4653685	0.020682191	1.1493336	1.0866615	-0.20569536	1.1572392	1.0915623	0.29862766	1.2627657	0.84775345	-0.24064176	1.3436583	0.887386	0.32625375
460	1.836	1.7820665	0.12810848	-0.0079872249	1.0647446	0.040205071	0.034415993	1.6310175	0.094443566	-0.045048065	0.92477675	0.088975546	0.067913763	1.6518985	0.12285001	0.047704511	0.95945609	0.12933633	-0.017130549	1.5872684	0.032970743	0.010835477	0.8575167	0.091515497	0.012319753	1.482777	0.48499915	-0.09659221	1.1624193	0.48607154	0.16111165	1.4825642	0.48143071	0.030165966	1.1572424	0.48056036	0.034338362	1.3068947	0.85932893	-0.14895279	1.2215921	0.8828931	0.2145567	1.3698325	0.95156591	-0.07832632	1.3444108	0.96227567	0.16346516	1.1890873	1.0065314	0.013065004	1.3279483	1.4067653	-0.14044089	1.300446	1.4258272	0.18886541	1.2508269	1.4643928	0.020483679	1.1552323	1.0856237	-0.20602444	1.1622623	1.090496	0.29799114	1.2685933	0.84669245	-0.24081173	1.3482067	0.88601733	0.32638451
461	1.84	1.7845546	0.12382502	-0.0064977556	1.0649358	0.040347962	0.034541584	1.6334439	0.092235437	-0.044581863	0.92565957	0.090544606	0.068947549	1.6539552	0.12019836	0.048485418	0.96053376	0.13046682	-0.016320516	1.5884536	0.031157324	0.010975679	0.85830728	0.093662588	0.013258787	1.4895629	0.4844782	-0.096001287	1.1670387	0.48531884	0.16160478	1.48938	0.48139078	0.030675342	1.1618192	0.4797345	0.034895077	1.3124621	0.85884865	-0.14911706	1.2268922	0.88177092	0.21449118	1.3758057	0.95088099	-0.078461804	1.3501835	0.9611766	0.16342396	1.1949327	1.0055823	0.012996769	1.3333688	1.4059713	-0.14057781	1.3055335	1.4248207	0.18872351	1.2559537	1.4634298	0.020287472	1.1611584	1.084604	-0.20634649	1.1673402	1.0894661	0.29732958	1.2744689	0.84564928	-0.24098569	1.3527194	0.88466214	0.32651038
462	1.844	1.7867691	0.11934187	-0.0049787942	1.0651349	0.040483254	0.034695401	1.6354621	0.089972327	-0.044085037	0.92658813	0.092064601	0.069857945	1.6556812	0.11744063	0.049219181	0.96170805	0.13165877	-0.015485202	1.5893114	0.029299512	0.011018118	0.85918895	0.095917761	0.014198408	1.4964329	0.4839833	-0.095414857	1.1717766	0.48455047	0.16214121	1.4961351	0.48136565	0.031156061	1.1665362	0.47886716	0.035545733	1.3180246	0.85840163	-0.14929585	1.2322763	0.88063474	0.21442847	1.3818311	0.95025992	-0.078643802	1.3560002	0.96008804	0.16335947	1.2008244	1.0046392	0.012947283	1.3388035	1.4052231	-0.14070801	1.310509	1.4238828	0.18857299	1.2610818	1.4624818	0.020091488	1.1671194	1.0836065	-0.20666274	1.1724067	1.0884578	0.29661226	1.2803907	0.84462815	-0.24115936	1.3571798	0.88332641	0.32663329
463	1.848	1.7886993	0.11472667	-0.0034112435	1.0653461	0.040610508	0.034886906	1.6371707	0.087647777	-0.043587658	0.92754771	0.093600698	0.07071601	1.6571057	0.1145977	0.049921402	0.96298671	0.13291211	-0.014626076	1.5898673	0.027402856	0.010990894	0.8601708	0.098281609	0.015128919	1.5032742	0.4835049	-0.094877471	1.1766106	0.48376869	0.16272424	1.5028386	0.48133884	0.031587384	1.1713807	0.4779379	0.036258171	1.3236424	0.85796167	-0.14951213	1.237806	0.87955159	0.2143161	1.3879149	0.9496893	-0.078867852	1.3618556	0.95901494	0.16327797	1.2067691	1.0036968	0.012914841	1.3442478	1.4044991	-0.14083376	1.3154799	1.4229826	0.18841303	1.266203	1.4615463	0.019891949	1.1731209	1.0826311	-0.20699177	1.1773168	1.0874405	0.29577649	1.2863569	0.84363009	-0.24133542	1.3615778	0.88201182	0.32675353
464	1.852	1.7903248	0.11001977	-0.0017783689	1.0655734	0.040734748	0.035109108	1.6386342	0.085251417	-0.043097006	0.92860238	0.09518567	0.071556062	1.6582408	0.11167917	0.050618527	0.96437928	0.13422202	-0.013744525	1.5901299	0.025459686	0.010909756	0.8612581	0.10075753	0.016049779	1.5099093	0.48302664	-0.094446727	1.1815296	0.48298613	0.16336221	1.5094872	0.48128888	0.031953255	1.176345	0.47694307	0.036947038	1.3293339	0.85750875	-0.14976359	1.2434819	0.87853398	0.21414963	1.3940718	0.94915618	-0.079128703	1.3677437	0.95796499	0.16318342	1.212776	1.002745	0.012885722	1.3496988	1.4037784	-0.14096399	1.3205024	1.4221055	0.18823746	1.2713228	1.4606147	0.019681271	1.179163	1.0816785	-0.20734202	1.1819211	1.0863783	0.29474935	1.2923702	0.84265449	-0.24152354	1.3659227	0.88071697	0.32686986
465	1.856	1.7916801	0.10522187	-7.9856407e-05	1.0658127	0.0408604	0.03533494	1.6398769	0.082792984	-0.042580859	0.92983127	0.09680639	0.072370715	1.6591012	0.10871934	0.051358844	0.96588968	0.13558713	-0.012842045	1.5901217	0.023518447	0.010800268	0.86245334	0.10334965	0.016965846	1.5162214	0.48253316	-0.09415686	1.1865566	0.48221298	0.16406113	1.5160841	0.48119509	0.032246518	1.1814177	0.47589442	0.037533939	1.3350924	0.85703212	-0.15002974	1.2492783	0.87755425	0.21395256	1.400313	0.94865176	-0.079412958	1.3736583	0.95694594	0.16307732	1.2188551	1.0017816	0.012834813	1.3551577	1.4030573	-0.14110807	1.3255761	1.4212524	0.18804208	1.2764547	1.4596835	0.019451409	1.1852409	1.0807481	-0.2076966	1.1862511	1.0852837	0.29355647	1.2984324	0.84170618	-0.24172627	1.3702416	0.87944092	0.32697851
466	1.86	1.792913	0.10027127	0.001672985	1.0660613	0.040993899	0.035522224	1.6409622	0.080343604	-0.041979438	0.93121327	0.098446672	0.073162662	1.6597918	0.10583001	0.052202993	0.96751488	0.13701057	-0.011918007	1.5899425	0.021766296	0.010725443	0.86376546	0.10605708	0.017875673	1.5223315	0.48199133	-0.093960262	1.1917393	0.48144414	0.16481491	1.522646	0.48102724	0.032469719	1.1865643	0.47480662	0.037998456	1.3409243	0.85653197	-0.1502892	1.2551574	0.87658107	0.21373777	1.4066309	0.94817049	-0.079692874	1.3796017	0.95596243	0.16295994	1.2250072	1.0008144	0.012731792	1.3606251	1.402343	-0.14126851	1.3306915	1.4204209	0.18782918	1.281604	1.4587584	0.019200684	1.1913494	1.0798351	-0.20803369	1.1905821	1.0842394	0.29236427	1.3045415	0.8407931	-0.24193934	1.3745703	0.87818614	0.32706721
467	1.864	1.7942998	0.095068523	0.0034679955	1.066329	0.041143356	0.035647913	1.6420815	0.078071379	-0.041237796	0.93265475	0.10011471	0.073951794	1.6606109	0.10322177	0.053178898	0.96925178	0.13849159	-0.010972638	1.5898091	0.020538697	0.01079144	0.86521404	0.10887382	0.018761056	1.5285725	0.48134308	-0.093743498	1.1971101	0.48066776	0.16560784	1.5291646	0.48073794	0.032631221	1.1917452	0.47368993	0.038388666	1.3468803	0.85601815	-0.15053348	1.2610684	0.87559761	0.21349465	1.413	0.9477087	-0.079932566	1.3855872	0.95501262	0.16283208	1.2312111	0.99985769	0.012561799	1.3660999	1.4016428	-0.14144026	1.3358443	1.4196056	0.18760529	1.2867597	1.4578465	0.018935008	1.1974862	1.0789344	-0.20834866	1.1951939	1.0833293	0.29133844	1.3107001	0.83991373	-0.2421647	1.3789349	0.87695833	0.32712
